<?xml version="1.0" encoding="UTF-8" standalone="no"?>
<!-- Created with Inkscape (http://www.inkscape.org/) -->

<svg
   xmlns:dc="http://purl.org/dc/elements/1.1/"
   xmlns:cc="http://creativecommons.org/ns#"
   xmlns:rdf="http://www.w3.org/1999/02/22-rdf-syntax-ns#"
   xmlns:svg="http://www.w3.org/2000/svg"
   xmlns="http://www.w3.org/2000/svg"
   xmlns:sodipodi="http://sodipodi.sourceforge.net/DTD/sodipodi-0.dtd"
   xmlns:inkscape="http://www.inkscape.org/namespaces/inkscape"
   width="22"
   height="17"
   id="svg3944"
   version="1.1"
   inkscape:version="0.48.2 r9819"
   sodipodi:docname="New document 7">
  <defs
     id="defs3946" />
  <sodipodi:namedview
     id="base"
     pagecolor="#ffffff"
     bordercolor="#666666"
     borderopacity="1.0"
     inkscape:pageopacity="0.0"
     inkscape:pageshadow="2"
     inkscape:zoom="11.2"
     inkscape:cx="10.224039"
     inkscape:cy="14.267235"
     inkscape:document-units="px"
     inkscape:current-layer="layer1"
     showgrid="false"
     fit-margin-top="0"
     fit-margin-left="0"
     fit-margin-right="0"
     fit-margin-bottom="0"
     inkscape:window-width="1920"
     inkscape:window-height="1148"
     inkscape:window-x="1272"
     inkscape:window-y="-8"
     inkscape:window-maximized="1" />
  <metadata
     id="metadata3949">
    <rdf:RDF>
      <cc:Work
         rdf:about="">
        <dc:format>image/svg+xml</dc:format>
        <dc:type
           rdf:resource="http://purl.org/dc/dcmitype/StillImage" />
        <dc:title></dc:title>
      </cc:Work>
    </rdf:RDF>
  </metadata>
  <g
     inkscape:label="Layer 1"
     inkscape:groupmode="layer"
     id="layer1"
     transform="translate(-364.99998,-522.8125)">
    <rect
       style="fill:none;stroke:#ce5c00;stroke-width:1;stroke-linecap:round;stroke-linejoin:round;stroke-miterlimit:4;stroke-opacity:1;stroke-dasharray:none;stroke-dashoffset:0"
       id="rect3868"
       width="19"
       height="10.5"
       x="366.49997"
       y="527.8125" />
    <path
       style="fill:none;stroke:#ce5c00;stroke-width:1;stroke-linecap:round;stroke-linejoin:round;stroke-miterlimit:4;stroke-opacity:1;stroke-dasharray:none;stroke-dashoffset:0"
       d="m 366.955,525.83154 c -0.04,-0.0158 -0.13461,-1.04491 -0.0842,-1.09527 0.0444,-0.0444 0.28718,0.1282 0.337,0.25275 0.0313,0.0782 -0.0506,0.18536 0,0.25276 0.0533,0.0711 0.18171,0.031 0.25276,0.0842 0.10047,0.0754 0.0931,0.23653 0.1685,0.33701 0.0477,0.0635 0.12444,0.10241 0.1685,0.1685 0.0312,0.0467 -0.0251,0.11827 0,0.1685 0.0265,0.0531 0.19098,0.14603 0.25276,0.0843 0.0444,-0.0444 0.0494,-0.11626 0.0842,-0.16851 0.022,-0.033 0.0717,-0.0466 0.0842,-0.0842 0.0178,-0.0533 -0.0209,-0.11635 0,-0.1685 0.11889,-0.29721 0.21812,-0.2083 0.33701,-0.50551 0.0209,-0.0521 -0.0136,-0.11401 0,-0.1685 0.0576,-0.23048 0.11847,-0.13558 0.25275,-0.33701 0.0156,-0.0234 -0.0126,-0.0591 0,-0.0842 0.0266,-0.0532 0.17443,-0.22072 0.25276,-0.16851 0.24258,0.16172 0.13101,0.26202 0.25275,0.50551 0.0453,0.0906 0.10525,0.17369 0.16851,0.25276 0.0925,0.11568 0.25344,0.21167 0.337,0.337 0.0348,0.0523 0.0644,0.10893 0.0842,0.16851 0.009,0.0266 -0.0198,0.0644 0,0.0842 0.20308,0.20308 -0.0455,-0.35978 0.16851,-0.25276 0.071,0.0355 0.13298,0.0975 0.1685,0.16851 0.0126,0.0251 -0.0199,0.0644 0,0.0842 0.0199,0.0199 0.0591,-0.0126 0.0842,0 0.0355,0.0178 0.0487,0.0665 0.0842,0.0842 0.0449,0.0224 0.12361,-0.0225 0.16851,0 0.0355,0.0178 0.0487,0.0665 0.0842,0.0842 0.12454,0.0623 0.46521,-0.0623 0.58976,0 0.0355,0.0178 0.0487,0.0665 0.0842,0.0843 0.0509,0.0254 0.21381,-0.0389 0.25276,0 0.09,0.09 -0.13504,0.0842 0.25275,0.0842 0.11807,0 0.60723,0.0334 0.67401,0 0.0225,-0.0113 0.14602,-0.15726 0.16851,-0.16851 0.0166,-0.008 0.31813,0 0.0842,0"
       id="path3876"
       inkscape:connector-curvature="0" />
  </g>
</svg>
